<svg id="Layer_1" data-name="Layer 1" xmlns="http://www.w3.org/2000/svg" viewBox="0 0 200 50"><defs><style>.cls-1{fill:#fff;stroke-width:0.7px;}.cls-1,.cls-2{stroke:#034ea2;}.cls-1,.cls-2,.cls-3{stroke-miterlimit:2.61;}.cls-1,.cls-3,.cls-4{fill-rule:evenodd;}.cls-2{fill:none;stroke-width:0.7px;}.cls-3,.cls-4,.cls-5{fill:#034ea2;}.cls-3{stroke:#231f20;stroke-width:0.04px;}</style></defs><title>Sarasavi Logo Colour THE-web</title><path class="cls-1" d="M27.39,7.18A17.82,17.82,0,1,1,9.56,25,17.85,17.85,0,0,1,27.39,7.18Z"/><path class="cls-2" d="M23.19,26.86h8.39v2.52a2.31,2.31,0,0,1-2,2.51H23.19v-5Zm8.39-3.73H23.19V20.62a2.31,2.31,0,0,1,2-2.51h6.35v5Z"/><path class="cls-3" d="M27.39,14c.74,0,2.11-3.42,5.43-1.93s1.7,4.53,2.31,5.14,3.74-1,5.13,2.31S38.34,24.24,38.34,25s3.32,2.12,1.92,5.44-4.53,1.69-5.13,2.3,1.19,3.56-2.31,5.14-4.6-1.92-5.43-1.92S25.17,39.16,22,37.86s-2-4.62-2.3-5.14-3.75,1-5.14-2.3,1.92-4.7,1.92-5.44-3.22-2.31-1.92-5.43,4.72-1.89,5.14-2.31-.82-3.65,2.3-5.14S26.64,14,27.39,14ZM32.48,24.7H21.26V20.62h0a4.42,4.42,0,0,1,1-2.79,3.27,3.27,0,0,1,2.54-1.28h8.75V24.7Zm-10.19.6H33.51v4.08h0a4.42,4.42,0,0,1-1,2.79A3.27,3.27,0,0,1,30,33.45H21.26V25.3Z"/><path class="cls-2" d="M27.39,9a16,16,0,1,1-16,16,16,16,0,0,1,16-16Z"/><path class="cls-4" d="M51.4,24.48h4.73a1.13,1.13,0,0,0,.89,1,11.08,11.08,0,0,0,3,.27,13.56,13.56,0,0,0,3.07-.23c.54-.15.81-.42.81-.83s-.26-.66-.78-.79a39.36,39.36,0,0,0-4-.13c-2.24,0-3.62,0-4.14-.11a4.17,4.17,0,0,1-3-1.31,3.42,3.42,0,0,1-.58-2.1,3.13,3.13,0,0,1,2-3.29c1-.39,3.2-.58,6.55-.58a35.7,35.7,0,0,1,4.61.21,4.87,4.87,0,0,1,2.23.84,2.09,2.09,0,0,1,.7.9,6,6,0,0,1,.3,1.58H63.18a1,1,0,0,0-.32-.55A7.64,7.64,0,0,0,59.93,19a14.77,14.77,0,0,0-3,.2c-.54.14-.81.38-.81.73s.37.72,1.11.77c.58,0,2.7.07,6.34.1a6.89,6.89,0,0,1,3.78.81,3.07,3.07,0,0,1,1.18,2.75,4.2,4.2,0,0,1-.46,2.11,2.83,2.83,0,0,1-1.45,1.21q-1.64.69-7,.69a34.32,34.32,0,0,1-4.88-.24,4.75,4.75,0,0,1-2.32-.95,3.43,3.43,0,0,1-1.09-2.73Zm24.49-4.22H71.26a3.72,3.72,0,0,1,.61-2,4.24,4.24,0,0,1,2.59-1.48,29.88,29.88,0,0,1,5.92-.4,26.51,26.51,0,0,1,4.18.22,3.74,3.74,0,0,1,1.9.93,2.84,2.84,0,0,1,.85,1.36,9.82,9.82,0,0,1,.22,2.36v6.88H83.06V26.55h-.22A3,3,0,0,1,81.21,28a5.8,5.8,0,0,1-1.65.33c-.71.06-1.84.08-3.39.08a15.18,15.18,0,0,1-2.89-.21,3.69,3.69,0,0,1-1.62-.75,3.29,3.29,0,0,1-.9-2.59A3.54,3.54,0,0,1,71.82,22a4.57,4.57,0,0,1,2.24-.91,40.39,40.39,0,0,1,5.1-.21,10.88,10.88,0,0,1,2.29.17,2.61,2.61,0,0,1,1.23.73h.2v-.6c0-.9-.18-1.46-.54-1.69a6.09,6.09,0,0,0-2.65-.34,16.29,16.29,0,0,0-3.1.17,1.07,1.07,0,0,0-.7,1Zm3.1,3a9.51,9.51,0,0,0-2.91.26,1,1,0,0,0-.68.93,1,1,0,0,0,.67,1,8.81,8.81,0,0,0,2.54.24,12.76,12.76,0,0,0,3.31-.27,1,1,0,0,0,.87-1,1,1,0,0,0-.76-.95,21.54,21.54,0,0,0-3-.14Zm11.43-6.61H94.8V18.4H95a3.61,3.61,0,0,1,1.75-1.56,8.07,8.07,0,0,1,3.06-.46c1.87,0,3.18.33,3.91,1s1.11,1.88,1.11,3.6c0,.1,0,.36,0,.77h-4.38a3.12,3.12,0,0,0-.23-1.41q-.45-.75-2.22-.75a2.89,2.89,0,0,0-2.35.83,2.19,2.19,0,0,0-.47,1,10.82,10.82,0,0,0-.12,1.91v4.75H90.42V16.67Zm21.29,3.59h-4.63a3.72,3.72,0,0,1,.61-2,4.24,4.24,0,0,1,2.59-1.48,29.81,29.81,0,0,1,5.92-.4,26.6,26.6,0,0,1,4.18.22,3.74,3.74,0,0,1,1.9.93,2.9,2.9,0,0,1,.84,1.36,9.24,9.24,0,0,1,.23,2.36v6.88h-4.47V26.55h-.22A3,3,0,0,1,117,28a5.8,5.8,0,0,1-1.65.33c-.71.06-1.84.08-3.39.08a15.18,15.18,0,0,1-2.89-.21,3.74,3.74,0,0,1-1.63-.75,3.29,3.29,0,0,1-.9-2.59A3.54,3.54,0,0,1,107.64,22a4.54,4.54,0,0,1,2.23-.91,40.69,40.69,0,0,1,5.11-.21,11,11,0,0,1,2.29.17,2.58,2.58,0,0,1,1.22.73h.21v-.6c0-.9-.18-1.46-.54-1.69a6.13,6.13,0,0,0-2.65-.34,16.29,16.29,0,0,0-3.1.17,1.06,1.06,0,0,0-.7,1Zm3.1,3a9.51,9.51,0,0,0-2.91.26,1,1,0,0,0-.68.93.93.93,0,0,0,.67,1,8.76,8.76,0,0,0,2.54.24,12.82,12.82,0,0,0,3.31-.27,1,1,0,0,0,.87-1,1,1,0,0,0-.76-.95,21.54,21.54,0,0,0-3-.14Zm11,1.2h4.74a1.13,1.13,0,0,0,.89,1,11,11,0,0,0,3,.27,13.5,13.5,0,0,0,3.07-.23c.55-.15.82-.42.82-.83s-.26-.66-.79-.79a38.87,38.87,0,0,0-3.95-.13c-2.25,0-3.62,0-4.15-.11a4.19,4.19,0,0,1-3-1.31,3.49,3.49,0,0,1-.58-2.1A3.14,3.14,0,0,1,128,17c1-.39,3.2-.58,6.56-.58a35.52,35.52,0,0,1,4.6.21,4.82,4.82,0,0,1,2.23.84,2.09,2.09,0,0,1,.7.9,6.32,6.32,0,0,1,.31,1.58h-4.74a1,1,0,0,0-.32-.55,7.57,7.57,0,0,0-2.92-.33,14.89,14.89,0,0,0-3,.2c-.54.14-.81.38-.81.73s.37.72,1.12.77q.87.06,6.33.1a6.9,6.9,0,0,1,3.79.81A3.09,3.09,0,0,1,143,24.39a4.2,4.2,0,0,1-.46,2.11,2.85,2.85,0,0,1-1.44,1.21q-1.65.69-7,.69a34.16,34.16,0,0,1-4.87-.24,4.79,4.79,0,0,1-2.33-.95,3.46,3.46,0,0,1-1.09-2.73Zm24.5-4.22h-4.63a3.64,3.64,0,0,1,.61-2,4.24,4.24,0,0,1,2.59-1.48,29.81,29.81,0,0,1,5.92-.4,26.69,26.69,0,0,1,4.18.22,3.78,3.78,0,0,1,1.9.93,2.9,2.9,0,0,1,.84,1.36,9.33,9.33,0,0,1,.22,2.36v6.88h-4.46V26.55h-.22A3,3,0,0,1,155.66,28a5.88,5.88,0,0,1-1.66.33c-.7.06-1.83.08-3.38.08a15.18,15.18,0,0,1-2.89-.21,3.74,3.74,0,0,1-1.63-.75,3.29,3.29,0,0,1-.9-2.59A3.54,3.54,0,0,1,146.27,22a4.54,4.54,0,0,1,2.23-.91,40.58,40.58,0,0,1,5.11-.21,11,11,0,0,1,2.29.17,2.58,2.58,0,0,1,1.22.73h.21v-.6c0-.9-.18-1.46-.54-1.69a6.13,6.13,0,0,0-2.65-.34,16.21,16.21,0,0,0-3.1.17,1,1,0,0,0-.7,1Zm3.1,3a9.47,9.47,0,0,0-2.91.26,1,1,0,0,0-.68.93.94.94,0,0,0,.66,1,8.86,8.86,0,0,0,2.54.24,12.71,12.71,0,0,0,3.31-.27,1,1,0,0,0,.88-1,1,1,0,0,0-.76-.95,21.66,21.66,0,0,0-3-.14Zm9.76-6.61h5.29l3.86,8.12,3.83-8.12h5.28l-6.12,11.44h-6L163.2,16.67Zm19.85,0h4.64V28.11h-4.64V16.67Zm0-4.67h4.64v3.21h-4.64V12Z"/><path class="cls-5" d="M69.11,32.62H67.34v-.95H72v.95H70.25V37.9H69.11Z"/><path class="cls-5" d="M77.61,31.67v2.5h2.63v-2.5h1.14V37.9H80.24V35.16H77.61V37.9H76.47V31.67Z"/><path class="cls-5" d="M89.87,35.14H87.52V37h2.62v.93H86.38V31.67H90v.94H87.52v1.6h2.35Z"/><path class="cls-5" d="M100.45,31.76a10,10,0,0,1,1.67-.13,3,3,0,0,1,1.77.39,1.32,1.32,0,0,1,.65,1.18,1.44,1.44,0,0,1-1,1.34v0a1.56,1.56,0,0,1,1.26,1.53,1.66,1.66,0,0,1-.59,1.29,3.55,3.55,0,0,1-2.32.58,10.42,10.42,0,0,1-1.4-.09Zm1.13,2.46h.58c.8,0,1.23-.37,1.23-.89s-.44-.86-1.16-.86a3.06,3.06,0,0,0-.65,0Zm0,2.86a3.34,3.34,0,0,0,.6,0c.73,0,1.39-.27,1.39-1s-.64-1-1.43-1h-.56Z"/><path class="cls-5" d="M115,34.72c0,2.09-1.26,3.28-3,3.28a2.89,2.89,0,0,1-2.88-3.17,3,3,0,0,1,3-3.27A2.88,2.88,0,0,1,115,34.72Zm-4.65.09c0,1.27.64,2.28,1.73,2.28s1.72-1,1.72-2.33-.58-2.28-1.72-2.28S110.35,33.52,110.35,34.81Z"/><path class="cls-5" d="M125.21,34.72c0,2.09-1.27,3.28-3,3.28a2.89,2.89,0,0,1-2.87-3.17,3,3,0,0,1,3-3.27A2.88,2.88,0,0,1,125.21,34.72Zm-4.65.09c0,1.27.64,2.28,1.73,2.28s1.72-1,1.72-2.33-.59-2.28-1.72-2.28S120.56,33.52,120.56,34.81Z"/><path class="cls-5" d="M129.89,31.67H131v2.87h0c.15-.24.31-.47.45-.68l1.64-2.19h1.4l-2.15,2.65,2.28,3.58h-1.33l-1.75-2.85-.57.66V37.9h-1.12Z"/><path class="cls-5" d="M138.94,36.66a3.09,3.09,0,0,0,1.51.4c.72,0,1.13-.34,1.13-.85s-.31-.75-1.1-1c-1-.37-1.69-.92-1.69-1.82s.85-1.79,2.21-1.79a3.39,3.39,0,0,1,1.49.31l-.27.92a2.72,2.72,0,0,0-1.25-.3c-.72,0-1,.38-1,.75s.36.7,1.2,1c1.08.41,1.6.95,1.6,1.85S142,38,140.38,38a3.6,3.6,0,0,1-1.69-.39Z"/><path class="cls-5" d="M148.6,31.67v2.5h2.63v-2.5h1.14V37.9h-1.14V35.16H148.6V37.9h-1.14V31.67Z"/><path class="cls-5" d="M162.9,34.72c0,2.09-1.27,3.28-3,3.28a2.88,2.88,0,0,1-2.87-3.17,3,3,0,0,1,3-3.27A2.88,2.88,0,0,1,162.9,34.72Zm-4.65.09c0,1.27.63,2.28,1.73,2.28s1.72-1,1.72-2.33-.59-2.28-1.72-2.28S158.25,33.52,158.25,34.81Z"/><path class="cls-5" d="M167.57,31.75a10.67,10.67,0,0,1,1.74-.12,2.8,2.8,0,0,1,1.83.5,1.78,1.78,0,0,1,.61,1.38,1.93,1.93,0,0,1-.52,1.41,2.8,2.8,0,0,1-2,.67,2.33,2.33,0,0,1-.56-.05V37.9h-1.13Zm1.13,2.9a2.23,2.23,0,0,0,.56.05c.85,0,1.37-.42,1.37-1.14s-.49-1.06-1.27-1.06a2.91,2.91,0,0,0-.66.06Z"/></svg>